<svg xmlns="http://www.w3.org/2000/svg" viewBox="0 0 1080 1080">
  <defs>
    <style>
      .cls-1{fill:#472003}.cls-2{fill:#633d23}.cls-4{fill:#1e1e1e}.cls-5{fill:#fe5035}.cls-6{fill:#c7c7c7}.cls-7{fill:#020202}.cls-8{fill:#fff}.cls-9{fill:#281b0d}.cls-10{fill:#fcd638}.cls-11{fill:#fdb998}
    </style>
  </defs>
  <g id="bloemen">
    <path d="M721.9 1076.5c6.5-6.4-16.3-172.6-.1-219.3 32.8-88 79.8-219.2 57.2-320-17.1-90-106.3-187-44-257.9 42.9-26.5 68.3 14 95 10.3 19.1-16 2.3-26.3-67.3-69-.6-5.1-74.4-93.2-77-47.5 54.5 70.9-1.8 91.8-2 182.7 2.9 56.5 54.8 172.3 62.7 250.9 13.5 134-99.6 176.5-95.3 347 1.6 67.8 30.2 118.4 43.1 117.7 4.1-2.2 24.4-1 27.7 5m-328-10c-21.7.7-60.3-139.5-60.7-280.4-.3-136.7 35.3-278.2-6.1-304.5-12.4-8-22-9-22-9-29.7-3.5-50.2 25.7-71.6 18.5q-4.5-1.5-8.5-6.1c-2.5-8 7.6-24.5 74.4-62.2 26.8-32.1 59.3-66.4 71.8-59.4 3.7 2 4.5 7.2 5.3 12 4.2 27.1-24 41-24.7 68.9-.3 14.6 7 25 10.5 31 45.7 79.5-39.3 346 27.6 478 6.9 13.7 33.1 60.9 15.6 99-2.8 6-6.5 14-11.6 14.2" class="cls-6"/>
    <path d="M496.3 235.2c-1 41.7-174.9 71.3-194.4 62.4-8.4 27.7-38.7 67-84.2 83.5q-3.3 1.3-9.2 3a37 37 0 0 1 11 16.5c4 13.6-10.9 30.2-26.5 43.9a103 103 0 0 1-9.5 52.7c-17 34.6-51.4 48-62.8 76-1.3 3.2-5.3 14.2-15.8 23.8-1.1 1-5.4 5-11.5 8.3s-33.2 17-58.2 2.6a55 55 0 0 1-24-29.3 58 58 0 0 1 3.6-43.6c2.2-4.5 7.6-13.9 26.5-27.3-8.4-1.1-11.9-4.4-13.5-6.4q-4-5.3-3.3-14.3c2.1-27.3 29-56.7 29-56.7 14.6-16 45.1-49.5 82.7-56q-2.6-2.6-3.8-6.3c-1.1-3.4-2.6-12.5 18.9-36.4 13.4-15 26.4-25.2 41.7-36.1 14.1-10.1 54.8-38.3 84-39.2a26 26 0 0 1 16.7 4.2q4.7 3.8 7 8.3 1-4.7 3.1-10c6.3-15.4 40.5-37.3 94.8-44.7 12.2-1.7 86-11.4 96.5 14.6a17 17 0 0 1 1.2 6.5" class="cls-5"/>
    <ellipse cx="278.5" cy="369.7" class="cls-10" rx="119.8" ry="55.2" transform="rotate(-42 278.5 369.7)"/>
    <path d="M691.8 1050.4c-8.5-33.4 68.1-60.2 138.3-155.5 7-9.4.6-1.6 42.9-67.4 53.9-83.9 83.3-129.4 87.2-127.3 3.1 1.8-11.7 34.2-28.7 71.5-16.3 35.7-36 78.7-55.3 112.9-47.4 83.8-115 153.6-154.2 190.8-22.2-8.2-28.5-18-30.2-25" class="cls-6"/>
    <path d="M1063.3 377.7c-1.4 4-7.3 19.9-24 29.5-25.2 14.5-52.6.6-58.6-2.7a62 62 0 0 1-11.5-8.2c-10.6-9.7-14.7-20.7-16-24-11.4-28-45.9-41.6-63-76.4-5.6-11.3-11-28.3-9.7-53-15.6-13.7-30.6-30.4-26.6-44 1-3.3 4.4-11.3 11-16.7q-5.8-1.7-9.1-3c-45.7-16.5-76.2-56-84.6-84-19.7 9-194.5-20.8-195.4-62.6 0-3.3 1-6 1.2-6.5 10.5-26.2 84.7-16.4 97-14.7 54.5 7.4 88.9 29.4 95.2 44.8q2.2 5.3 3.2 10.2 2.2-4.7 7-8.3a26 26 0 0 1 16.7-4.3c29.4.9 70.3 29.2 84.5 39.4 15.4 11 28.4 21.3 42 36.3 21.5 24 20 33.1 19 36.6q-1.2 3.6-4 6.3c37.8 6.5 68.5 40.2 83.3 56.3 0 0 26.9 29.5 29 57q.8 9-3.3 14.3c-1.6 2-5.1 5.3-13.6 6.4 19 13.5 24.5 23 26.7 27.5a58 58 0 0 1 3.6 43.8" class="cls-5"/>
    <ellipse cx="794.7" cy="167.8" class="cls-10" rx="55.5" ry="120.4" transform="rotate(-48 794.7 167.8)"/>
    <path d="M1069 781.6q-.9-3.1-4.2-10a8 8 0 0 0 3.4-1.2c8.9-6 2.3-30-3.7-43.4-4.6-10.2-10.7-23.5-23.5-26.2q-3.7-.8-8-.4c1.9-6.9-5.8-20.8-12.4-28.7-6.7-8-21.2-20.7-29.5-16.2h-.2c-1.3-16.2-18-38.9-39.8-50.1-4.6-2.4-21.2-10.9-28.2-4.6q-1.5 1.5-2.2 3.4a87 87 0 0 0-61-16.2c-24.3 1.8-58.2 13.5-60.5 31.5v1.5a80 80 0 0 0-14.6 7.4c-7.6 5-25.9 16.8-29.6 37.9a49 49 0 0 0 3.3 26.6 63 63 0 0 0 36.7 34.2 60 60 0 0 0 21.8 3.4 99 99 0 0 0-8.6 8.9c-18 21.7-23.4 52.8-7.7 77.2 22.9 36.5 67.1 38.4 96.9 8.7l.1-.1q5-5 9.6-10.7a93 93 0 0 0-4.2 26c-.7 25.5 13 50.6 37.8 59.2 3.6 1.3 21.2 8 39.6.1a58 58 0 0 0 32-42q5.6 3.3 12.9 4.6c20.5 3.1 36-13 37.2-14.2 21.6-23 8.7-60.8 6.6-66.6m-49.3-75c-4.2 5.5-4.1 14.3-1 23.6l-5.3-1.8a222 222 0 0 0-18.2 39.1l-2.7-4.7c-9.2-16-16.2-28-27.2-29-10.1-1-20 7.5-28.3 18.9q2-10 1.9-19.6c-.3-12.1-2.4-23.4-10.4-32-10-9.3-24.2-11.3-39.8-8.5 11.9-13.2 20-28.8 16.3-42.7q27.1 1.2 36.4-2.8c15.3 13.1 34.6 24 43.7 21.5q-.2 5.6 1.4 10.6c4.7 15 22.8 24.3 35 25.6q-1 .8-1.8 1.9" class="cls-5"/>
    <ellipse cx="960.2" cy="706" class="cls-10" rx="55.1" ry="92.7" transform="rotate(-44 960 706)"/>
    <path d="M580.7 286.4c-7.5 7.4-17 1.9-56.4 1.4-12.3-.2-20.8-.2-32.4 1.3-4.2.6-19.3 2.7-38.3 9.6a194 194 0 0 0-44.8 23.3c-18.2 12.5-24.3 21.1-26.7 24.9a69 69 0 0 0-8.2 17.5 591 591 0 0 1-49.2 51.6l-.1.1q-4.5 4.2-8.9 7.9l-19.6 16.8a521 521 0 0 1-25.6 19.3 233 233 0 0 1-18.3 11.2c-4 2.1-10.2 5.4-18.2 11.3-14.6 10.6-22.6 20.9-32.5 33-5 6.2-25.7 31.8-49.6 56.7-6 6.3-16 16.4-31.6 21.6-13.3 4.5-20.8 2-22.8 1.3a28 28 0 0 1-16.6-16c-4.4-11.6 1.2-21.8 2.2-23.7 3.5-6.4 8.2-9.2 16.1-14.5 0 0 13.5-8.9 31-22 16.3-12.4 14.4-13.7 32.4-27.1 10-7.5 12.5-8.5 17.2-13.7 0 0 2.5-2.9 4.6-6 4-6 1.7-16.7 4.5-23 3.1-7.1 13.2-9.6 20-10.6 4.4-11.2 15.2-28.3 39.3-54.8 18.7-20.5 35.3-34.6 68.5-63 0 0 43.3-37 74.2-41.1 2.3-.3 6.5-1 11-.2a103 103 0 0 1 15-19.2c27.8-28.4 63.8-33.9 74.7-35.4a125 125 0 0 1 68.5 9c15 7 20.1 13.9 22.6 19.1 4.8 10 6 25.6-2 33.4M777 239.2a546 546 0 0 1-19.8-16.9q9.8 8.6 19.7 16.9" class="cls-5"/>
    <path d="M993.3 378.4a29 29 0 0 1-16.7 16c-2 .8-9.5 3.2-23-1.3a77 77 0 0 1-31.7-21.7c-24-25-44.9-50.8-49.8-56.9-10-12.3-18-22.6-32.7-33.3-8-5.9-14.4-9.2-18.3-11.3q-9.7-5.4-18.4-11.2a517 517 0 0 1-25.7-19.5q-10-8.2-19.8-16.9l-8.9-7.9-.2-.2c-13-12-30.2-29.2-49.3-51.8a73 73 0 0 0-8.2-17.6 93 93 0 0 0-26.9-25c-20.3-14-38.3-21-45-23.4-19.1-6.9-34.3-9-38.5-9.6a207 207 0 0 0-32.6-1.4c-39.6.5-49.2 6.1-56.7-1.3-8-8-6.8-23.6-2-33.6 2.5-5.3 7.6-12.1 22.7-19.2a124 124 0 0 1 68.9-9c11 1.5 47.1 7 75.1 35.5a109 109 0 0 1 15.1 19.3c4.4-.7 8.7-.1 11 .2 31 4.2 74.6 41.3 74.6 41.3 33.3 28.5 50 42.8 68.8 63.4 24.2 26.6 35.1 43.8 39.6 55 6.8 1 16.9 3.5 20 10.7 2.9 6.3.5 17.1 4.6 23.2 2 3 4.6 6 4.6 6 4.7 5.2 7.1 6.1 17.2 13.7 18 13.4 16.3 14.8 32.7 27.2 17.6 13.2 31 22.2 31 22.2 8 5.3 12.7 8 16.2 14.5 1 1.9 6.7 12.2 2.3 23.9m-668.7 37.7" class="cls-5"/>
  </g>
  <path id="haar_achterkant" d="M480.8 348.9h219.6v162.5H480.8z" class="cls-2"/>
  <path id="nek" d="M563.9 413a76 76 0 0 1 10.6 20.8c9.3 28.4-1.5 54-5.3 62.3l69.4-12a439 439 0 0 0-31.7-92.6z" class="cls-11"/>
  <g id="ogen">
    <path d="M522.7 357.4c.9 1.5 2.5 4.8 2.4 9 0 4.6-2.1 7.7-2.3 8l-1.4 1.6c-4.7 4.8-13 5.5-21.4 2.4a48 48 0 0 1-16-15.6c-3.3-5.1-7.8-12.4-5.2-17.5 2.8-5.2 12.7-7.2 24.1-3.7a82 82 0 0 1 19.8 15.8m58.3 2 1 2c5.3 9.3 18.6 11.8 30.4 6.1" class="cls-8"/>
    <path d="m581 359.4 1 2c5.3 9.3 18.6 11.8 30.4 6.1 2.5-1.4 6.5-4.2 9.8-8.9 3.9-5.5 4.7-11 5.8-17.8 1.2-8.2 1.9-12.3 0-14.7-4.6-5.7-19.5-2.6-29 3.4a44 44 0 0 0-18 29.9" class="cls-8"/>
  </g>
  <ellipse id="pupil_rechts" cx="515.1" cy="360.1" class="cls-1" rx="13.4" ry="17.1" transform="rotate(-18 515.1 360.2)"/>
  <path id="pupil_links" d="m617.7 361.2-1.5.4c-7.3 1.5-14.8-4.8-16.7-14.1a20 20 0 0 1 2-14c1.9-2.8 4.5-5 7.8-5.6q4.3-.8 8.1 1.5a19 19 0 0 1 8.7 13.2c1.5 8.4-2.1 16.3-8.4 18.5" class="cls-1"/>
  <path id="hoofd" d="M709.6 325.4c-.3-2.8-1-7.5-3.7-12.9a23 23 0 0 0-5.1-7 17 17 0 0 0-10.8-5c-5.5-.3-9.5 2.7-10.5 3.4-2.9 2.2-2.6 3.5-4.4 4.2-2.3.8-4.6-.6-6.9-2.5 1-11.9.2-20.5-.1-23.5-1.5-13.8-4.8-43-27.7-65-34.9-33.6-87-22.7-95.5-21-7.7 1.7-58.7 13.1-78.2 56.4a95 95 0 0 0-7.7 39.6c.1 16.4 4.3 31.3 8.8 42.8a21 21 0 0 0-11.8-1.2 32 32 0 0 0 18.5 2.5l3-.8c2.3-.8 7-1 9-1A45 45 0 0 1 504 340a59 59 0 0 1 20 18.6l-1.2-1.2c.8 1.5 2.4 4.8 2.3 9 0 4.7-2 7.7-2.3 8l-1.4 1.7c-3.5 3.5-10 5-21.4 2.3l2 1.6-4-2.4a43 43 0 0 1-16.8-16l-.2-.3c-2.6-5.5-2.8-8.1-4.5-11.8-.6-1.6-1.4-3-1.4-3l-.7-1.3a33 33 0 0 1-18.6-11.4q-1.4.4-2.7 1c-9.7 5.3-10.1 22.5-5.4 33.7a36 36 0 0 0 18.4 18.1 39 39 0 0 0 27.7 1.5c3 7.4 3.3 10 7 14.4 7.3 8.6 16.4 12 29.6 17 10 3.7 18.3 6.9 28 7.3 22.5 1 39.5-12.8 56.5-26.7a139 139 0 0 0 39.7-46.6q4.2 3.2 9.4 6a38 38 0 0 0 16.2 4.8c3.8 0 6.4-.6 7.3-.8 3.6-1 6-2.7 8.6-4.5 2.8-2 5.3-3.7 7.7-6.8a41 41 0 0 0 5.8-26.9m-62.4-12.8a72 72 0 0 1-5.2 8.7l-4.1 5.3q-3.7 4.6-4 5.4a34 34 0 0 0-5.2 15.3v.1l-.3 1.6-.2.6-.1.6a21 21 0 0 1-2.9 6.1 43 43 0 0 1-6.7 7.5l-.8.6-.7.5-.3.2-.3.2-.2.1-.3.2-.3.2a35 35 0 0 1-4.6 3.1l1.4-1.4c-11.8 5.7-25 3.2-30.4-6l-1-2-.5 2.3c-.2 0-.5-2-.3-5a45 45 0 0 1 5.5-19.2 34 34 0 0 1 22.3-17c10.5-2.6 14.6.8 24.3-1.2a39 39 0 0 0 14-6.2z" class="cls-11"/>
  <g id="wimpers">
    <path d="M480.4 345.7c3.1-.3 5-1.3 9.9-1.4a47 47 0 0 1 32.5 13.2c-2.6-4.1-8.4-12-18.8-17.5-4.5-2.3-14.2-7.4-24.6-5.1-2.5.5-3.8 1.2-7 1.6-6.9.7-12.7-1.1-16.7-2.9a33 33 0 0 0 18.7 11.6" class="cls-9"/>
    <path d="m480.4 345.7.1 1 .4 2.6a38 38 0 0 0 5 13A58 58 0 0 0 502 380l-4.1-2.4a43 43 0 0 1-16.8-16l-.2-.3c-2.6-5.5-2.9-8.1-4.5-11.9l-1.4-3-.7-1.2m151.5-16.7q.6 3 .6 8.7.1 2.1-.4 5.2a30 30 0 0 1-2 7.6c-1 2.6-2.6 5.3-3.3 6.5l-3 4.6a54 54 0 0 1-6.7 7.9q2.1-1.2 4.6-3.2l.3-.2.3-.2.2-.1.3-.2.3-.2.7-.5.8-.6a43 43 0 0 0 7.3-8.4l.5-.8a21 21 0 0 0 2-5.5l.3-1.7-.3 1.7.3-1.7.2-1.1c1-5.6 2-10 5-14.3q.3-.7 4-5.4l4.2-5.3a79 79 0 0 0 5.1-8.7l-.8.6a39 39 0 0 1-14 6.2c-9.8 2-13.9-1.4-24.4 1.3a34 34 0 0 0-22.3 17q-1.2 2.2-1.8 3.8a45 45 0 0 0-3.7 15.3c-.2 3 .1 5 .3 5q.3 0 .5-2.4a34 34 0 0 1 20.6-25.8 55 55 0 0 1 15.9-4.2l2.3-.4h.2c3-.4 4.6-.5 5.8-.5" class="cls-9"/>
  </g>
  <path id="wenkbrauwen" fill="#442f23" d="M566.1 331.7a4 4 0 0 0 2 1.8c1.9.6 3.8-.5 4.5-1a987 987 0 0 0 28.1-17c16-10.5 32.4-8.7 32.2-10.6-.1-1.3-8.3-1.7-15.1-1.1-2.6.2-12.3 1.3-27.7 9.1-10 5.1-25.4 14.6-24 18.8m-46.4 3.1c0 .2.2 1.2-.4 1.8-1 1-4-.1-4.8-.5-7.6-3-28.4-9-33.3-10.3-16.7-4-30 2.7-30.5.9-.3-1.4 7-5.2 15-7 0 0 15.4-3.9 50.3 11.7 1.1.5 3.3 1.6 3.7 3.4"/>
  <path id="haar_rechts" d="M486.8 264a46 46 0 0 1 26.5-16.7 43 43 0 0 1 17.9.4l.6.2q.7 0 1.3.3l.8.2 2.1.7.5.1.8.3.8.3.5.2.5.2 4.5-100.3c-21.3-3.6-54.9-4.8-84.6 13.8-62.7 39.5-56.1 135.3-55.2 146.9 2 23.7 8.8 49.7 8.8 49.7 11.5 47 23.2 57.6 34.7 99.5a323 323 0 0 1 11.7 79.8c.8 60.8-18.2 79-6.3 95 9.1 12.2 33.8 19.7 100.7.7 31.7-90.6 21.6-132 4.7-153-8.4-10.5-34.3-35.4-57.3-79.8l-7-14.4a37.6 37.6 0 0 1-48.2-26.3c-1.4-7.2-1.9-22 7.5-27 5.6-3 12.2-.9 14.7 0l7.7-18.7q-.4-3.3-.5-9.4c-.2-8.6-.3-18.9 4.2-29.9a54 54 0 0 1 7.5-12.8" class="cls-2"/>
  <path id="onderlichaam" d="M720.6 1077.6a282 282 0 0 1-19.3-128.5l-306.5-1.6c.6 7.7 1.2 20.1-.8 35.4-3 22.7-9.1 32.6-12.3 54.8-1.3 9-2.5 22.8-1 40z" class="cls-4"/>
  <path id="hand_rechts" d="M358.2 943.5V992c-.1 6-.4 9.3 0 14.6.6 7 1.7 8.3 2.7 8.8 1.8.8 4-.4 4.6-.8 4-2.2 5.5-6.9 6.2-9.8 4.3-16 .8-20 5.3-28.2 1.6-2.9 3.8-5.4 8.2-10.6 5.6-6.4 7-6.7 8-9.4 2.4-6.3-.6-16-7.5-20.4-8-5.2-20.6-2.6-27.5 7.3" class="cls-11"/>
  <path id="arm_rechts" d="M394.5 943c-2.2.5-15.4.7-31.7 6.2-5.5 1.8-12 4.5-21.5 5.5-6.2.6-11.3.3-14.7 0v-22.5c-4.1-.5-9.2-1.8-11.5-5.7-6.5-11.1 18.5-28.2 20.5-55.2 1.3-17.8-8.9-19.6-11.4-37.5-5-34.9 29.8-54.2 70.3-123.5 10.6-18 7.8-16 22.3-42.8a985 985 0 0 1 80.6-125.2c-59.7 312-88.4 398.4-102.9 400.8" class="cls-4"/>
  <path id="zak_rechts" d="M391.4 1027.2c-3 2.2-6.4 4.6-9.7 3.6-13.2-4-19-59 7.6-80.7 3.5-2.9 10.8-8.8 16.4-6.5 14.3 6 13.4 63.6-14.3 83.6" class="cls-7"/>
  <path id="lichaam" d="M551.7 448.8a128 128 0 0 1 42-15.6 483 483 0 0 1 53.7-7.8 192 192 0 0 0 4.3 44c6 3 7.6 6 8 8.2.2 1.3.2 3.2 1.6 4.4 1.3 1.1 3.2 1 3.6 1 10.1-.5 35 59 35 59 7.3 17.2 7.8 16 12.2 27 20.8 51.2 26.4 125.2 26.4 125.2 5.2 68.4 7.7 102.6 0 134a259 259 0 0 1-39.5 86.1l4.8 72H388.6a465 465 0 0 1 17-120 93 93 0 0 1-17-33.7c-3.5-13.5-5-32.6 14.6-85 14.4-38.7 21.2-44.6 42.9-96.7 5.6-13.6 10.3-25.6 19.6-49.7 21.4-55.1 29.6-79.8 47.7-91.6 2.3-1.5 12.6-8 27.5-18.1l13.6-9.6a121 121 0 0 0-2.8-33Z" class="cls-7"/>
  <path id="hand_links" d="m488.5 951.6-1 28.3 41.1 3.3c.3-2.1.6-5.2 0-8.8 0 0-.9-6-4-11.1-4.6-7.4-18.7-13.5-36.1-11.7" class="cls-11"/>
  <path id="zak_links" d="M482 976q32.2 3.4 64.3 7.2c7 43.7-1.4 78.6-17.4 84-9.1 3.1-28.2-.9-31.5-1.6-5.5-1.2-13.3-2.9-17.7-5.8-14-9.2-12.1-43.8 2.3-83.9Z" class="cls-7"/>
  <path id="haar_links" d="M674.4 308.2c1-.1 1.7-.6 1.7-.6q1.1-.9 1.2-1.3a16 16 0 0 1 13.1-5.8s2.8 0 5.5 1.1c12.1 5.2 17.7 26.9 12.1 42a36 36 0 0 1-6.7 11.1 30 30 0 0 1-11 7.9c-11 4.4-22-1-24.1-2q-2 10.6-3.7 16.9a134 134 0 0 1-8.5 27q-3.5 6.9-5 9.3s-10.2 16.6-25.3 53.3c-17.5 42.6-35.9 165.7-27 167.4 8.6 1.7 26.4-109.3 65.7-112a44 44 0 0 1 24.9 7.4c11 7.3 15.8 18 22.7 33.8 5.5 12.5 4.9 14.7 10.6 30.2 8.7 23.6 14.8 40 21 39.9 9-.2 16.9-36.4 19.9-67.3 5.6-56.5-4.4-99-10.4-127.6-32-155.3-6-205.3-56.5-260.2a127 127 0 0 0-49.5-34.4c-44.3-16.4-86.4-1-101.5 5.5a302 302 0 0 0-6 79.8q.7 13 1.5 20.6a72 72 0 0 1 77.6 12.6c40.7 40.2 11.2 133.5-14.2 189.8q-1.6 4.2-.3 4.7c44-28 72-102.2 72.6-144.3v-.5zc-9.6-48.7-39.8-73.8-39.8-73.8-40.5-33.9-97.3-22-97.4-20.4-.2 1.9 66.6-6 89.2 29.9 7.7 12.2 11.8 32 26.9 50.6 0 0 12.3 15 21.1 13.7" class="cls-2"/>
  <path id="arm_links" d="M497.7 852.6c-6.5-5.3-25.7-22.1-22.7-40.4.8-5.3 4.3-10.4 11.3-20.2a296 296 0 0 1 25.7-31c25.6-28.3 27.2-28.8 28.9-34.6 4.8-16.6-5.6-22.2 0-37 5.7-15 18.2-13.3 29-30.2 9-14 3.7-20.3 10.2-40.3 4-12.8 6.1-10 31.5-47.8 13.2-19.7 26.3-41 44-47.1q5.1-1.6 6.8-1.6c15.6-1.8 28.5 9.3 32 12.3 5.9 5 14 14.3 27 62 4 15.6 6.5 24.4 8.5 36.1 10 56.5 27.1 258.8-22.4 272.7-12 3.4-19.1-6.9-42-1.8-16.2 3.6-23 11.2-41.4 13.5a84 84 0 0 1-26.6-1l-28.2 61.6A165 165 0 0 1 458.8 931z" class="cls-4"/>
  <path id="haar_plukje" d="M540.8 467a227 227 0 0 1-47-79c-10.8-30.2-32.6-91.8-7-124a44 44 0 0 1 21.6-15.6 46 46 0 0 1 30.7 1.8l1.7-36.8c-8.3-.2-46.5-.1-67.7 27.1-8.1 10.3-10 21.7-14.1 41.5-2.2 11-6 30-3.3 55a175 175 0 0 0 15.9 55.8 181 181 0 0 0 30 46.9 112 112 0 0 0 39.2 27.2Z" class="cls-2"/>
  <path id="ketting" d="M522.4 552.3q2-6.2 6.1-16.6l6.2-14.9c1-2.5 6.8-16 14.8-33.7 2.5-5.6 4.4-9.8 5-9.6s-.6 5-1.3 7.5a50 50 0 0 1-4 10.6c-3.6 7.6-6.7 15.4-10.3 23-6 13.1-9.5 20.7-8.7 21.2.6.4 2.5-2.5 8.2-9.3 4.9-5.8 5.1-5.6 13.4-14.9 4.9-5.6 7.4-8.4 10.8-12.6 4.4-5.3 7.2-9 12.7-15.1a43 43 0 0 1 16.6-12 87 87 0 0 1 22.9-6.3c0 .3-3.3 1.3-10.3 4a122 122 0 0 0-18.5 8.7 46 46 0 0 0-9.6 8.6q-9 10-17.7 20c-14.3 17-19.6 21.8-29 35.5l-2.3 3.3z" class="cls-10"/>
  <g id="hangertje_draak">
    <path d="M513.4 553.4c-.6.7-2.2 2.7-2 5.2a7 7 0 0 0 1 2.6c2.9 4 10.1.8 16.1 4.4 4.9 2.9 7.8 9.7 6.2 14.5-.8 2.5-2.7 4-3.2 4.5a10 10 0 0 1-8.2 2c-4.7-1.1-8-5.8-10.6-9.5-2.2-3-3.4-5.7-5.9-5.9 0 0-1.7 0-2.5 1-1.2 1.5.4 4.4 1.1 5.8a25 25 0 0 0 11.7 10.8c-1.6-.8-14.5-7.3-15.7-14.4-.2-1-.6-3.1.7-4.7 1.5-2 4.6-2 4.8-2 7.1.2 10 13.1 16.6 13.2.5 0 2 0 3.4-1s2.2-2.7 2-4.3c0-.5-.2-2-2-3.6-4.5-4.3-10-.7-16-4.5-.4-.4-5.3-3.5-5.7-8.7-.2-2 .4-3.6.8-4.5 2.4-6.4 10-11.3 16.4-10 2.2.4 4.4 1.6 4.3 2.5 0 1.1-4 1-9.5 3.8q-2.4 1.3-3.8 2.8" class="cls-10"/>
    <path d="M526 544.3c.7 1.6 3.4.6 5.4 2.5 1.2 1.2 2 3.5 1.3 4.8q-.5.6-.7 1.3c0 .8.6 1.1 1.4 2.5.2.5 1.5 2.6.9 3.3l-.9.3c-1 .4-1 .7-1.4.6-.6-.1-.6-1-1.2-1.1s-.9.6-1.2.4c-.6-.1 0-1.9-.7-3.6-.5-1.3-1.7-2.3-2-2.1s0 .8.5 3c.8 3.4.8 4.5 1.6 4.7.7.2 1.3-.9 2-.6.5.3.7 1.6.2 2.2-.7 1-2.8.7-3.6-.2-.3-.3-.3-.6-.5-2q-.5-3.1-1-4a6 6 0 0 0-2.2-1.6c-1.5-.9-2-.7-3.1-1.2-2.3-1.2-3.3-3.7-3-3.9.1-.2 1.6 1.6 2.2 1.2.4-.2.2-1.8-.6-3-1-1.7-3-2.3-3-2.4.1 0 3.5 2 4 1.3.4-.4-.3-1.9-1.3-2.8-1.1-1-2.3-.9-2.3-1.2s2-.7 3.4 0 1.7 2 2 1.8c.1 0-.4-1.1-.5-2.7-.2-1.8.2-3.2.4-3.2s-.1 2.3 1 3c1 .5 2-.5 2.7 0 .6.5-.3 1.6.2 2.7" class="cls-10"/>
  </g>
</svg>
