<svg xmlns="http://www.w3.org/2000/svg" viewBox="0 0 820 820">
  <path d="M713 340.4c-41-81-108 94-126.2 126.6-20.5 41.5-39 83.7-64.4 121-22.6 32.1-46.7 52.3-83.2 53.3-140.6.9-125-311-266-296.7-51 8.3-70 64.3-38.1 104.2 28.4 36.7 76.7 54 114.9 82.4a213 213 0 0 1 58.7 63.7c29.1 49.3 43.6 123.4-1.8 166.7-39.2 35.7-104.4 39.1-152 16.7-26-11.5-49-30.9-59-57.7C80.1 682 83.5 631 83 587.2c.9-112.6-.3-255 1.6-368 1-26.5 3.3-52 11.2-76.3 30-89.8 126.8-138 214-92.9 46 22.6 74.7 71.4 97.4 118 28.2 55.6 52.4 125 87.6 174.4 38.8 52.7 74.5 44.6 123 9.2 22.4-14.8 56.2-45.5 82-43.2 43 6.6 36.5 105.4 37.6 143.2v121.9c-1.5 67.2 4.8 133.3-33 177a95 95 0 0 1-86.8 29.6c-33.8-6.3-61.7-36.4-61-71.1.5-33.9 23.3-62.6 46-86 29.6-29.8 64.2-57.6 86.3-94.3C721 475.2 738 398.3 713 340.4"/>
</svg>
