<svg xmlns="http://www.w3.org/2000/svg" viewBox="0 0 820 820">
  <path d="M296.6 498c67.8-5.2 142-2.4 210.7-4 35.4-.6 72.1.2 101-8 20.5-5.5 41-14 62-17.5 20.7-4 43.3 1.1 53.4 20.6 12.5 22.4 9.8 54.5 3.7 79.7C694.9 712.1 555.6 799.6 413 795.3c-92 4-97-15.4-151.8-78.8-24.2-24-60.3-31.3-93-24.4-30.1 3.8-82.7 24.7-84-20.3-1.3-122.6-.8-430.4-1-599.8.4-11.1 2.9-22.8 12.4-29 24.8-14.4 59.5-3.4 83 11 22.5 13 42.4 36.4 62.8 50 29.8 22.2 57.7 1.2 80.4-20.5 18.5-17.2 39.9-34 64-41.9 26.6-9.6 60.4-7.7 67 23.4 7.8 32.4 3.7 78.3 4.8 113.5-.2 25.8.5 49.7-3.7 73.2-8.6 60-69 81.8-120 98.5a386 386 0 0 0-73.6 35.3c-59.7 37-128.9 109.3-142 179.6-1.2 36.4 40.8-4.1 55.4-14.9q16.4-13.5 35-24.1c27-15 57.4-24.6 87.7-28z"/>
</svg>
