<svg xmlns="http://www.w3.org/2000/svg" viewBox="0 0 820 820"><path d="M731.2 323.7c-.2-17.8-14.5-32.5-25.3-35.2-19.1-4.8-32.5 4.9-41.2 22.2L427.5 785.6 264 382.6c-14.5-35.8-41.6-60.6-82.4-60.8a86 86 0 0 0-89.7 82.4c-2 50.6 38.3 88.5 89.5 89.4a150 150 0 0 1 140 101.5l76.4 194.7-315.1.1 1.6-618c.2-71.2 62.5-126 122.6-137.7 69.6-13.6 142.2 16.1 172.4 81L501 377.8a67 67 0 0 0 45.5 33.7c53.4 7.5 90.5-63.2 110-106.9 10.3-22.6 32-31 50.6-26.3 29.7 7.6 30 27.4 30 53.3l.1 459.1-207.6.2-.3-162.7c104.7-1.8 188-77 200.4-181 4.7-39.7 1.9-79.3 1.4-123.4"/></svg>