<svg xmlns="http://www.w3.org/2000/svg" viewBox="0 0 820 820">
  <path d="M622 672c2.3 40.4 61.4 123.7-11.8 128.8-126.2 1.1-280.1.4-408.9.2-71.6 0-12.7-75.1-7.2-111.5 7.2-41.4 3.6-85.3 4.8-128 .8-29.2-2.4-60.8 12.4-83.2 20.1-27 60.2-15.3 82.4 3.5 19 14.8 34.6 34 49.4 53.8 16.6 22.2 50.1 67.8 64.7 17.8 9.1-32.7 18.4-70.6 49.4-90.1 39.5-26.2 112-35.7 148.4-.7 17 24.5 12.1 55.3 13.4 85 .8 40-1.5 85.9 3 124.2zm-18.3-456.6c.4 134-131.5 227.6-258 185.5A195.6 195.6 0 0 1 213 200.4 195 195 0 0 1 379.6 21.7a195.5 195.5 0 0 1 224 193.5z"/>
</svg>
