<svg xmlns="http://www.w3.org/2000/svg" viewBox="0 0 820 820">
  <path d="M725 789.2c-10.3 6-21.4 4.4-34 4.7l-66.4.1-108.4.2h-42c-17.4-.2-27.6-1.4-36.7-17.8-23.7-52.5-45.6-112.5-67.6-165.1-6-13.2-7.6-24.6-19.3-31.5-9.4-3.8-18.4 1-21.4 13.8-4 41.4-1.3 87.8-2.7 130.3-2 24.6 7.8 64.6-24.7 69-55.2 2.6-115.8.2-170.6 1-18.6 0-39.4 1.5-46.6-17.1-4.9-75.7-.5-326.7-1.7-400.9 1-21.4 22.5-17.8 34.6-2.9 34.2 48.8 78.3 95.3 137 110.4 18.7 5.3 40.1 8.3 58.6 8.3 88 .7 229.9 1.5 298.4 2.2 98 3.4 133.2 79 125.8 170.1v75.5c0 15.8 1.7 40.4-12.1 49.6z"/>
  <path d="M419.1 477.8c-84-4.7-143-62.4-166.7-140.5-5.7-16.7-11.7-35.3-17.3-52.4-6.5-19.8-13.6-41.6-26.1-55.4-19.2-22.2-41.8-24.6-69.1-28.8-40.4-6-56.9-29.9-58.1-69.4-1-38.3-2-76 37-95.1 15.2-7.3 27.9-6.6 45.7-6.7h62.7c65.3.5 119.2-1.2 166 .5a74 74 0 0 1 56 38.1C483.5 153.5 547.4 322.6 572 385c3.5 9.5 6.9 17.2 7.6 27.8 1 13-3 31-12.1 42-19.7 25-50.6 24.1-80.8 24-22-.2-46 .2-67.4-1z"/>
</svg>
